<svg xmlns="http://www.w3.org/2000/svg" width="17.109" height="17.109" viewBox="0 0 17.109 17.109">
  <path id="ic_shopping_cart_24px" d="M6.133,15.687A1.711,1.711,0,1,0,7.843,17.4,1.709,1.709,0,0,0,6.133,15.687ZM1,2V3.711H2.711L5.79,10.2,4.636,12.3a1.654,1.654,0,0,0-.214.821,1.716,1.716,0,0,0,1.711,1.711H16.4V13.121H6.492a.212.212,0,0,1-.214-.214l.026-.1.77-1.394h6.373a1.7,1.7,0,0,0,1.5-.881l3.062-5.552a.836.836,0,0,0,.1-.411.858.858,0,0,0-.855-.855H4.6L3.8,2H1ZM14.687,15.687A1.711,1.711,0,1,0,16.4,17.4,1.709,1.709,0,0,0,14.687,15.687Z" transform="translate(-1 -2)" fill="#3a3a3a"/>
</svg>
