<svg id="menu" xmlns="http://www.w3.org/2000/svg" width="16" height="16" viewBox="0 0 16 16">
  <g id="icon" transform="translate(0)">
    <path id="path" d="M11.455,17.273a.727.727,0,0,0,.727.727h4A1.816,1.816,0,0,0,18,16.179V10a3.393,3.393,0,0,0-1.087-2.349L10.471,2.173a.727.727,0,0,0-.942,0L3.087,7.649A3.392,3.392,0,0,0,2,10V16.18A1.817,1.817,0,0,0,3.819,18h4a.727.727,0,0,0,.727-.727V12.909h2.909Zm-7.636-.727a.363.363,0,0,1-.364-.366V10a1.968,1.968,0,0,1,.575-1.24L10,3.682l5.971,5.075A1.975,1.975,0,0,1,16.545,10v6.182a.361.361,0,0,1-.361.366H12.909V12.182a.727.727,0,0,0-.727-.727H7.818a.727.727,0,0,0-.727.727v4.364Z" transform="translate(-2 -2)" fill="#3a3a3a"/>
  </g>
</svg>
