<svg id="icon" xmlns="http://www.w3.org/2000/svg" width="20" height="32" viewBox="0 0 20 32">
  <rect id="bg" width="20" height="20" fill="none"/>
  <path id="path" d="M10.79,9.273,8.031,6.514A.727.727,0,1,1,9.06,5.486l4,4a.727.727,0,0,1,0,1.029l-4,4a.727.727,0,1,1-1.029-1.029l2.758-2.758H2.724a.727.727,0,0,1,0-1.455ZM9.273,3.455A.727.727,0,1,1,9.273,2h6.906A1.82,1.82,0,0,1,18,3.821V16.179A1.821,1.821,0,0,1,16.179,18H9.273a.727.727,0,1,1,0-1.455h6.906a.366.366,0,0,0,.367-.366V3.821a.366.366,0,0,0-.367-.366Z" transform="translate(0.099 14)" fill="#3a3a3a"/>
</svg>
