<svg id="icon" xmlns="http://www.w3.org/2000/svg" width="20" height="20" viewBox="0 0 20 20">
  <rect id="bg" width="20" height="20" fill="none"/>
  <path id="path" d="M4.909,3.455H3.821A1.82,1.82,0,0,0,2,5.275v10.9A1.82,1.82,0,0,0,3.821,18H16.179A1.82,1.82,0,0,0,18,16.179V5.275a1.82,1.82,0,0,0-1.821-1.821H15.091V2.727a.727.727,0,1,0-1.455,0v.727H12.182V2.727a.727.727,0,1,0-1.455,0v.727H9.273V2.727a.727.727,0,1,0-1.455,0v.727H6.364V2.727a.727.727,0,1,0-1.455,0v.727Zm0,1.455v.727a.727.727,0,0,0,1.455,0V4.909H7.818v.727a.727.727,0,0,0,1.455,0V4.909h1.455v.727a.727.727,0,0,0,1.455,0V4.909h1.455v.727a.727.727,0,0,0,1.455,0V4.909h1.089a.365.365,0,0,1,.366.366v10.9a.366.366,0,0,1-.366.366H3.821a.365.365,0,0,1-.366-.366V5.275a.366.366,0,0,1,.366-.366Zm9.455,4.727a.727.727,0,1,0,0-1.455H6.727a.727.727,0,0,0,0,1.455Zm0,2.545a.727.727,0,1,0,0-1.455H5.636a.727.727,0,0,0,0,1.455Zm0,2.545a.727.727,0,0,0,0-1.455H9.273a.727.727,0,0,0,0,1.455Z" transform="translate(0)" fill="#3a3a3a"/>
</svg>
